<svg width="35" height="35" viewBox="0 0 35 35" fill="none" xmlns="http://www.w3.org/2000/svg">
<path d="M29.7208 12.4979L27.9271 15.1958C28.7921 16.9212 29.2156 18.8341 29.1596 20.7633C29.1036 22.6926 28.5699 24.5778 27.6062 26.25H7.39375C6.14128 24.0772 5.6223 21.5587 5.91374 19.0678C6.20518 16.5769 7.29153 14.2462 9.01174 12.4213C10.7319 10.5963 12.9944 9.37423 15.4638 8.93623C17.9331 8.49822 20.4779 8.8676 22.7208 9.98959L25.4187 8.19584C22.672 6.43449 19.4138 5.64522 16.1655 5.95429C12.9171 6.26335 9.86627 7.6529 7.50092 9.90065C5.13558 12.1484 3.5924 15.1245 3.11823 18.3529C2.64406 21.5812 3.2663 24.8754 4.88541 27.7083C5.13991 28.1492 5.50533 28.5157 5.94538 28.7715C6.38542 29.0274 6.88475 29.1636 7.39375 29.1667H27.5917C28.1056 29.1687 28.611 29.0349 29.0566 28.7788C29.5022 28.5227 29.8722 28.1534 30.1292 27.7083C31.4728 25.3807 32.1472 22.7271 32.0777 20.0404C32.0082 17.3536 31.1976 14.7384 29.7354 12.4833L29.7208 12.4979Z" fill="white"/>
<path d="M15.4437 22.4729C15.7146 22.7441 16.0363 22.9592 16.3904 23.106C16.7444 23.2528 17.124 23.3283 17.5073 23.3283C17.8906 23.3283 18.2701 23.2528 18.6242 23.106C18.9783 22.9592 19.2999 22.7441 19.5708 22.4729L27.825 10.0917L15.4437 18.3458C15.1726 18.6167 14.9574 18.9384 14.8106 19.2925C14.6639 19.6465 14.5883 20.0261 14.5883 20.4094C14.5883 20.7927 14.6639 21.1722 14.8106 21.5263C14.9574 21.8804 15.1726 22.202 15.4437 22.4729V22.4729Z" fill="white"/>
</svg>
